<?xml version="1.0" encoding="UTF-8" standalone="no"?>
<svg xmlns="http://www.w3.org/2000/svg" height="228px" width="754px" version="1.1" xmlns:xlink="http://www.w3.org/1999/xlink" viewBox="0 0 754 228"><!-- Generator: Sketch 43.2 (39069) - http://www.bohemiancoding.com/sketch -->
 <title>build.snapcraft.hero</title>
 <desc>Created with Sketch.</desc>
 <defs>
  <linearGradient id="linearGradient-1" y1="65.739%" x2="8.0431%" x1="61.371%" y2="78.712%">
   <stop stop-color="#31C6B7" offset="0"/>
   <stop stop-color="#31C6B7" stop-opacity="0" offset="1"/>
  </linearGradient>
  <linearGradient id="linearGradient-2" y1="43.886%" x2="100.06%" x1="-1.8011%" y2="43.886%">
   <stop stop-color="#8C59D9" offset="0"/>
   <stop stop-color="#31C6B7" offset="1"/>
  </linearGradient>
  <linearGradient id="linearGradient-3" y1=".76904%" x2="39.787%" x1="-.10211%" y2=".76904%">
   <stop stop-color="#31C6B7" offset="0"/>
   <stop stop-color="#93CF0F" offset="1"/>
  </linearGradient>
  <linearGradient id="linearGradient-4" y1="33.415%" x2="54.921%" x1="-16.959%" y2="33.415%">
   <stop stop-color="#31C6B7" offset="0"/>
   <stop stop-color="#93CF0F" offset="1"/>
  </linearGradient>
 </defs>
 <g id="Page-1" fill-rule="evenodd" fill="none">
  <g id="build.snapcraft.hero">
   <g id="header-final">
    <g id="g8888" stroke="#93CF10" transform="translate(601 .63614)">
     <polyline id="path8782" stroke-linejoin="bevel" points="98.5 78.834 98.5 28.588 49.5 56.878 49.5 132.93 73.377 119.2"/>
     <path id="path8784" stroke-linejoin="bevel" d="m38.49 126.58l-9.921-5.73m-2.172-1.26l-8.78-5.06m-2.152-1.25l-14.965-8.64-0.0003-76.052 49 28.29v76.052l-8.999-5.19"/>
     <polygon id="path8786" stroke-linejoin="bevel" points="0.4997 28.588 49.5 56.878 98.5 28.588 49.5 0.29774"/>
     <path id="path8788" stroke-linejoin="bevel" fill-rule="nonzero" fill="#fff" d="m3.5 45.253l43 24.826"/>
     <path id="path8842" d="m26.302 52.434c0 0.536-0.158 0.959-0.439 1.176-0.281 0.216-0.663 0.209-1.061-0.021-0.397-0.23-0.779-0.663-1.06-1.205s-0.44-1.147-0.44-1.684c0-0.536 0.159-0.959 0.44-1.176 0.281-0.216 0.663-0.209 1.06 0.021 0.398 0.23 0.78 0.663 1.061 1.205s0.439 1.147 0.439 1.684"/>
     <path id="path1192" stroke-linejoin="bevel" d="m38.505 123.3l-9.93-5.75m-2.041-1.18l-8.886-5.14m-2.187-1.27l-12.134-7.03 0.173-69.224 43 24.826v69.398l-5.944-3.44"/>
     <path id="path1194" stroke-linejoin="bevel" fill-rule="nonzero" fill="#fff" d="m3.5 56.8l43 24.826"/>
     <path id="path1198" stroke-linejoin="bevel" fill-rule="nonzero" fill="#fff" d="m3.5 68.347l43 24.826"/>
     <path id="path1202" stroke-linejoin="bevel" fill-rule="nonzero" fill="#fff" d="m3.5 79.894l43 24.826"/>
     <path id="path1206" stroke-linejoin="bevel" fill-rule="nonzero" fill="#fff" d="m3.5 91.441l43 24.829"/>
     <path id="path1234" d="m26.302 63.98c0 0.537-0.158 0.96-0.439 1.176-0.281 0.217-0.663 0.21-1.061-0.02-0.397-0.23-0.779-0.664-1.06-1.205-0.281-0.542-0.44-1.148-0.44-1.684s0.159-0.959 0.44-1.176 0.663-0.209 1.06 0.02c0.398 0.23 0.78 0.664 1.061 1.205 0.281 0.542 0.439 1.148 0.439 1.684"/>
     <path id="path1242" d="m26.302 75.528c0 0.536-0.158 0.959-0.439 1.176-0.281 0.216-0.663 0.209-1.061-0.021-0.397-0.23-0.779-0.663-1.06-1.205s-0.44-1.147-0.44-1.684c0-0.536 0.159-0.959 0.44-1.176 0.281-0.216 0.663-0.209 1.06 0.021 0.398 0.23 0.78 0.663 1.061 1.205s0.439 1.147 0.439 1.684"/>
     <path id="path1250" d="m26.302 87.075c0 0.536-0.158 0.959-0.439 1.176-0.281 0.216-0.663 0.209-1.061-0.021-0.397-0.23-0.779-0.663-1.06-1.205s-0.44-1.147-0.44-1.684c0-0.536 0.159-0.959 0.44-1.176 0.281-0.216 0.663-0.209 1.06 0.021 0.398 0.23 0.78 0.663 1.061 1.205s0.439 1.147 0.439 1.684"/>
     <path id="path1258" d="m26.302 98.197c0 0.536-0.158 0.959-0.439 1.176-0.281 0.216-0.663 0.209-1.061-0.021s-0.779-0.663-1.06-1.205c-0.282-0.542-0.44-1.147-0.44-1.684 0-0.536 0.158-0.959 0.44-1.176 0.281-0.216 0.662-0.209 1.06 0.021s0.78 0.663 1.061 1.205 0.439 1.147 0.439 1.683"/>
    </g>
    <g id="g8141" transform="translate(0.5 23.297)">
     <polygon id="path7935" stroke-linejoin="bevel" stroke="#5B27A8" points="188 131.72 188 60.128 100 9.3215 100 80.913"/>
     <polygon id="path7933" stroke-linejoin="bevel" stroke="#8C59D9" points="192 143.27 96 87.841 96 2.3932 192 57.819"/>
     <polygon id="path7937" opacity=".5" stroke-linejoin="bevel" stroke="#8C59D9" points="192 143.27 195 141.52 195 56.073 192 57.819"/>
     <polygon id="path7939" opacity=".25" stroke-linejoin="bevel" stroke="#8C59D9" points="195 56.073 192 57.819 96 2.3932 99 0.64783"/>
     <path id="path7941" stroke-linejoin="bevel" stroke="#8C59D9" d="m133 109.2c0 6.93-0.16 7.24-5.81 10.5l21.81 12.6c5.8-3.35 6-3.47 6-10.4l-22-12.7z"/>
     <polygon id="path7943" stroke-linejoin="bevel" stroke="#8C59D9" points="140 160.56 169 143.83 106.11 107.52 77.108 124.3"/>
     <polygon id="path7945" opacity=".5" stroke-linejoin="bevel" stroke="#8C59D9" points="140 164.04 140 160.57 169 143.84 169 147.29"/>
     <polygon id="path7947" opacity=".5" stroke-linejoin="bevel" stroke="#8C59D9" points="77 124.2 140 160.57 140 164.04 77 127.66"/>
     <path id="path7949" stroke="#8C59D9" d="m10.459 91.137c-6.9742-0.366-10.459 5.313-10.459 17.043v34.11l59.018 34.11v-34.11c0.017 10.11 1.122 15.99 4.419 17.9v0.01l22.129 12.79c3.319 1.92 8.854 0.01 17.714-5.12l7.38-4.26-22.136-12.79-7.374 4.26v-0.14-0.03c-0.051-16.96-7.425-29.7-22.129-38.2l-36.886-21.315c-4.611-2.665-8.503-4.08-11.673-4.247l-0.003-0.011z"/>
     <path id="path7951" stroke="#8C59D9" d="m66.395 82.593c0 7.916-2.331 14.16-6.482 17.358-4.15 3.199-9.78 3.089-15.65-0.303-5.869-3.392-11.499-9.79-15.649-17.786-4.151-7.997-6.483-16.936-6.483-24.851 0-7.916 2.332-14.16 6.483-17.358 4.15-3.199 9.78-3.09 15.649 0.303 5.87 3.392 11.5 9.79 15.65 17.786 4.151 7.996 6.482 16.935 6.482 24.851"/>
     <path id="path7953" stroke="#8C59D9" d="m80.906 155.08c0 20.46 4.426 23.02 22.134 12.79l7.38-4.27-22.137-12.79-7.377 4.27z"/>
     <path id="path7955" stroke="#8C59D9" d="m58.774 142.12c0 10.22 1.105 16.15 4.422 18.07v0.01l22.129 12.79v-0.01c-3.311-1.92-4.417-7.84-4.42-18.04"/>
     <g id="g8139" opacity=".5" transform="translate(89 110)">
      <polygon id="path7957" points="8.9835 5.5312 11.984 7.2632 14.984 5.5312 14.983 3.2218 11.983 4.9538 8.9835 3.2218"/>
      <path id="path7959" opacity="0.01" fill-rule="nonzero" fill="#8C59D9" d="m15 2.0772l-3 1.7304 3 1.7324 3-1.7324-3-1.7304zm-4 2.3085l-3 1.7325 6 3.4648 3-1.7324-6-3.4649zm8 0l-3 1.7325 3 1.7324 3-1.7324-3-1.7325zm-12 2.3086l-3 1.7325 3 1.7322 3-1.7322-3-1.7325zm16 0l-3 1.7325 3 1.7322 3-1.7322-3-1.7325zm-5 1.7325l-3 1.7322 3 1.733 3-1.733-3-1.7322zm9.08 0.5312l-3 1.732 3 1.733 3-1.733-3-1.732zm-24.08 0.047l-3 1.732 5 2.887 3-1.732-5-2.887zm8 0l-3 1.732 3 1.733 3-1.733-3-1.732zm11 1.732l-3 1.733 3 1.73 3-1.73-3-1.733zm-7 0.577l-3 1.732 3 1.732 3-1.732-3-1.732zm16 0l-3 1.732 3 1.732 3-1.732-3-1.732zm-22 1.156l-3 1.73 3 1.733 3-1.733-3-1.73zm17.08 0.529l-3 1.732 3 1.733 3-1.733-3-1.732zm-7 0.578l-3 1.733 3 1.73 3-1.73-3-1.733zm15.92 0.047l-3 1.731 3 1.732 3-1.73-3-1.733zm-22 1.155l-3 1.732 3 1.732 3-1.732-3-1.732zm17 0.578l-3 1.73 3 1.733 3-1.733-3-1.73zm-7 0.576l-3 1.732 3 1.733 3-1.733-3-1.732zm16.043 0.025l-3 1.732 3 1.733 3-1.733-3-1.732zm-22.043 1.129l-3 1.732 30 17.321 3-1.733-30-17.32zm17 0.578l-3 1.732 3 1.733 3-1.733-3-1.732zm-7 0.578l-3 1.731 3 1.732 3-1.732-3-1.731zm16 0l-3 1.731 3 1.732 3-1.732-3-1.731zm-4.957 1.756l-3 1.732 3 1.733 3-1.733-3-1.732zm8.957 0.553l-3 1.732 3 1.733 3-1.733-3-1.732zm-15.957 0.025l-3 1.732 3 1.731 3-1.731-3-1.732zm10.957 1.707l-3 1.732 3 1.731 3-1.731-3-1.732zm-7 0.576l-3 1.732 3 1.733 3-1.733-3-1.732zm16 0.098l-3 1.732 3 1.733 3-1.733-3-1.732zm-5 1.635l-3 1.732 3 1.733 3-1.733-3-1.732zm-7 0.578l-3 1.732 3 1.731 3-1.731-3-1.732zm16 0l-3 1.732 3 1.731 3-1.731-3-1.732zm-5 1.828l-3 1.732 3 1.733 3-1.733-3-1.732zm9 0.48l-3 1.733 3 1.732 3-1.732-3-1.733zm-16 0.098l-3 1.733 3 1.73 3-1.73-3-1.733zm11 1.635l-3 1.733 3 1.732 3-1.732-3-1.733zm-7 0.578l-3 1.731 3 1.732 3-1.732-3-1.731zm16 0l-3 1.731 3 1.732 3-1.732-3-1.731zm-5 1.731l-3 1.732 3 1.733 3-1.733-3-1.732zm-7 0.578l-3 1.732 3 1.733 3-1.733-3-1.732zm16 0l-3 1.732 3 1.733 3-1.733-3-1.732zm-5 1.732l-3 1.733 3 1.73 3-1.73-3-1.733zm-7 0.576l-3 1.733 3 1.732 3-1.732-3-1.733zm16 0l-3 1.733 3 1.732 3-1.732-3-1.733zm-23 0.579l-3 1.732 3 1.732 3-1.732-3-1.732zm18 1.154l-3 1.732 1 0.578-4 2.309 3 1.732 7-4.041-1-0.578-2-1.154-1-0.578zm-7 0.578l-3 1.732 3 1.731 3-1.731-3-1.732zm-7 0.576l-3 1.733 4 2.31 3-1.732-4-2.311zm5 2.889l-3 1.73 5 2.887 3-1.73-5-2.887z"/>
      <polygon id="path7961" points="7.9836 9.5728 10.984 11.305 13.984 9.5728 13.984 7.2634 10.984 8.9954 7.9836 7.2634"/>
      <polygon id="path7963" points="0.98353 10.15 3.9835 11.882 6.9835 10.15 6.9835 7.8407 3.9835 9.5727 0.98353 7.8407"/>
      <polygon id="path7965" points="0.00001 10.737 3 12.469 6 10.737 6 8.4275 3 10.159 0.00001 8.4275"/>
      <polygon id="path7967" stroke-linejoin="bevel" stroke="#8B5BD9" points="0 10.661 12 3.7952 69 36.704 57 43.632"/>
      <path id="path7969" stroke-linejoin="bevel" stroke="#8B5BD9" d="m8.9999 5.5272l57 32.909"/>
      <path id="path7971" stroke-linejoin="bevel" stroke="#8B5BD9" d="m2.9999 8.9913l57 32.909"/>
      <g id="g8007" stroke-linejoin="bevel" stroke="#8B5BD9" transform="translate(11.984 4.8641)">
       <path id="path7973" d="m0 2.3857l3-1.732"/>
       <path id="path7975" d="m3 4.1177l3-1.732"/>
       <path id="path7977" d="m6 5.8498l3-1.732"/>
       <path id="path7979" d="m9 7.5819l3-1.732"/>
       <path id="path7981" d="m12 9.3139l3-1.732"/>
       <path id="path7983" d="m15 11.046l3-1.7321"/>
       <path id="path7985" d="m18 12.778l3-1.732"/>
       <path id="path7987" d="m21 14.51l3-1.732"/>
       <path id="path7989" d="m24.016 16.252l3-1.732"/>
       <path id="path7991" d="m27 17.974l3-1.732"/>
       <path id="path7993" d="m30 19.706l3-1.732"/>
       <path id="path7995" d="m33 21.438l3-1.732"/>
       <path id="path7997" d="m36 23.17l3-1.732"/>
       <path id="path7999" d="m39.016 24.912l3-1.732"/>
       <path id="path8001" d="m42 26.634l3-1.732"/>
       <path id="path8003" d="m45 28.366l3-1.732"/>
       <path id="path8005" d="m48.016 30.108l3-1.732"/>
      </g>
      <g id="g8043" stroke-linejoin="bevel" stroke="#8B5BD9" transform="translate(9.9835 7.8641)">
       <path id="path8009" d="m0.98353 2.263l3-1.7319"/>
       <path id="path8011" d="m3.9835 3.995l3-1.732"/>
       <path id="path8013" d="m6.9835 5.7271l3-1.732"/>
       <path id="path8015" d="m9.9835 7.4592l3.0005-1.732"/>
       <path id="path8017" d="m12.984 9.1912l3-1.7319"/>
       <path id="path8019" d="m15.984 10.923l3-1.7318"/>
       <path id="path8021" d="m18.984 12.655l3-1.732"/>
       <path id="path8023" d="m21.983 14.387l3-1.732"/>
       <path id="path8025" d="m25 16.129l3-1.732"/>
       <path id="path8027" d="m27.984 17.852l3-1.732"/>
       <path id="path8029" d="m30.984 19.584l3-1.732"/>
       <path id="path8031" d="m33.984 21.316l3-1.732"/>
       <path id="path8033" d="m36.983 23.048l3-1.732"/>
       <path id="path8035" d="m40 24.789l3-1.732"/>
       <path id="path8037" d="m42.984 26.512l3-1.732"/>
       <path id="path8039" d="m45.984 28.244l3-1.732"/>
       <path id="path8041" d="m49 29.985l3-1.732"/>
      </g>
      <g id="g8081" stroke-linejoin="bevel" stroke="#8B5BD9" transform="translate(5.0579 6.2853)">
       <path id="path8045" d="m1 4.3857l3-1.732"/>
       <path id="path8047" d="m4 6.1177l3-1.732"/>
       <path id="path8049" d="m7 7.8498l3-1.732"/>
       <path id="path8051" d="m10 9.5819l3-1.732"/>
       <path id="path8053" d="m13 11.314l3-1.7321"/>
       <path id="path8055" d="m16 13.046l3-1.732"/>
       <path id="path8057" d="m19 14.778l3-1.732"/>
       <path id="path8059" d="m22 16.51l3-1.732"/>
       <path id="path8061" d="m25.016 18.252l3-1.732"/>
       <path id="path8063" d="m28 19.974l3-1.732"/>
       <path id="path8065" d="m31 21.706l3-1.732"/>
       <path id="path8067" d="m34 23.438l3-1.732"/>
       <path id="path8069" d="m37 25.17l3-1.732"/>
       <path id="path8071" d="m40.016 26.912l3-1.732"/>
       <path id="path8073" d="m43 28.634l3-1.732"/>
       <path id="path8075" d="m46 30.366l3-1.732"/>
       <path id="path8077" d="m49.016 32.108l3-1.732"/>
       <polyline id="path8079" points="51.926 33.873 54.926 32.142 0.9256 0.96455"/>
      </g>
      <g id="g8097" stroke-linejoin="bevel" stroke="#8B5BD9" transform="translate(4 11.338)">
       <path id="path8083" d="m0.98353 2.263l3-1.7319"/>
       <path id="path8085" d="m3.9835 3.995l3-1.732"/>
       <path id="path8087" d="m6.9835 5.7271l3-1.732"/>
       <path id="path8089" d="m39 24.212l3-1.732"/>
       <path id="path8091" d="m41.984 25.934l3-1.732"/>
       <path id="path8093" d="m44.984 27.666l3-1.732"/>
       <path id="path8095" d="m49 29.985l3-1.732"/>
      </g>
      <polygon id="path8099" stroke-linejoin="bevel" stroke="#8B5BD9" points="14 2.5782 17 0.90844 74 33.817 71 35.549"/>
      <g id="g8137" stroke-linejoin="bevel" stroke="#8B5BD9" transform="translate(16.983 1.9773)">
       <path id="path8101" d="m0 2.3857l3-1.732"/>
       <path id="path8103" d="m3 4.1177l3-1.732"/>
       <path id="path8105" d="m6 5.8498l3-1.732"/>
       <path id="path8107" d="m9 7.5819l3-1.732"/>
       <path id="path8109" d="m12 9.3139l3-1.732"/>
       <path id="path8111" d="m15 11.046l3-1.7321"/>
       <path id="path8113" d="m18 12.778l3-1.732"/>
       <path id="path8115" d="m21 14.51l3-1.732"/>
       <path id="path8117" d="m24.016 16.252l3-1.732"/>
       <path id="path8119" d="m27 17.974l3-1.732"/>
       <path id="path8121" d="m30 19.706l3-1.732"/>
       <path id="path8123" d="m33 21.438l3-1.732"/>
       <path id="path8125" d="m36 23.17l3-1.732"/>
       <path id="path8127" d="m39.016 24.912l3-1.732"/>
       <path id="path8129" d="m42 26.634l3-1.732"/>
       <path id="path8131" d="m45 28.366l3-1.732"/>
       <path id="path8133" d="m48.016 30.108l3-1.732"/>
       <path id="path8135" d="m51.017 31.84l3-1.732"/>
      </g>
     </g>
    </g>
    <g id="g8193" transform="translate(294.15 12.298)">
     <polyline id="path8143" stroke-linejoin="bevel" stroke="#31C6B7" points="52.426 104.13 52.426 47.404 97.351 21.467 97.351 95.368"/>
     <path id="path8145" stroke="#31C6B7" d="m93.643 27.291c-0.421 0.068-1.093 0.458-2.171 1.08l-33.235 19.157c-2.876 1.657-2.874 1.661-2.874 4.983v23.253c0 3.322 0 3.322 2.874 1.661l33.235-19.157c2.874-1.66 2.871-1.66 2.871-4.982v-23.254c0-2.076 0-2.854-0.7-2.741z"/>
     <g id="g8171" transform="translate(.97462 78.814)">
      <path id="path8149" stroke-linejoin="bevel" stroke="#31C6B7" d="m21.327 59.897l-17.592 10.271c-3.4322 1.984-4.096 7.351-2.2047 8.561v0.023l51.744 29.908v-0.02c-2.029-1.06-1.307-6.79 2.19-8.812l118.91-68.708c1.07-0.616 1.87-0.579 2.42-0.146h0.03l-52.13-29.883c-0.18-0.0685-0.37-0.10656-0.59-0.10297h-0.02c-0.41 0.00682-0.9 0.15317-1.45 0.47297l-56.221 32.397-45.082 26.039zm34.137 48.453v0.01-0.01z"/>
      <path id="path8151" d="m55.471 108.36c-4.427 2.55-4.427-5.97 0-8.532l118.91-68.708c4.42-2.558 4.42 5.97 0 8.528l-118.91 68.712z" fill-opacity=".15686" fill-rule="nonzero" stroke="#31C6B7" fill="#31C6B7"/>
      <path id="path8153" stroke="#31C6B7" d="m54.028 105.19c0 0.64 0.188 1.15 0.523 1.41s0.789 0.25 1.262-0.02c0.474-0.28 0.928-0.8 1.263-1.45s0.523-1.38 0.523-2.02c0-0.65-0.188-1.16-0.523-1.42s-0.789-0.25-1.263 0.03c-0.473 0.27-0.927 0.79-1.262 1.44-0.335 0.66-0.523 1.38-0.523 2.03"/>
      <path id="path7938" opacity=".25" fill-rule="nonzero" fill="#31C6B7" d="m90.849 81.821c-0.179 0.003-0.369 0.064-0.566 0.178-0.394 0.227-0.772 0.654-1.051 1.191-0.278 0.536-0.436 1.139-0.436 1.67s0.158 0.947 0.436 1.162c0.279 0.215 0.657 0.208 1.051-0.02 0.393-0.227 0.77-0.656 1.048-1.193 0.279-0.536 0.436-1.137 0.436-1.668s-0.158-0.949-0.436-1.164c-0.139-0.107-0.304-0.16-0.482-0.156zm-4.975 2.799c-0.178 0.003-0.369 0.062-0.566 0.175-0.394 0.228-0.772 0.657-1.051 1.194-0.278 0.536-0.435 1.137-0.435 1.668s0.158 0.947 0.435 1.162c0.279 0.214 0.657 0.208 1.051-0.02 0.394-0.227 0.77-0.657 1.049-1.193 0.278-0.537 0.435-1.137 0.435-1.668s-0.158-0.947-0.435-1.162c-0.14-0.107-0.304-0.16-0.483-0.156zm-4.976 2.98c-0.179 0.003-0.372 0.062-0.569 0.176-0.393 0.227-0.77 0.657-1.048 1.193-0.279 0.537-0.436 1.137-0.436 1.668s0.158 0.948 0.436 1.162c0.278 0.215 0.655 0.208 1.048-0.019 0.394-0.228 0.773-0.657 1.051-1.194 0.279-0.536 0.438-1.136 0.438-1.668 0-0.531-0.16-0.947-0.438-1.162-0.139-0.107-0.304-0.159-0.482-0.156zm-4.973 2.891c-0.178 0.003-0.371 0.06-0.568 0.174-0.394 0.227-0.774 0.658-1.053 1.195-0.278 0.536-0.432 1.135-0.432 1.666s0.155 0.951 0.432 1.166c0.279 0.214 0.659 0.206 1.053-0.022 0.394-0.227 0.768-0.654 1.047-1.191 0.278-0.537 0.437-1.139 0.437-1.67s-0.158-0.951-0.437-1.166c-0.14-0.107-0.3-0.156-0.479-0.152zm-4.976 2.845c-0.179 0.003-0.372 0.062-0.569 0.176-0.394 0.228-0.77 0.657-1.049 1.194-0.278 0.536-0.435 1.136-0.435 1.668 0 0.531 0.158 0.951 0.435 1.166 0.279 0.214 0.655 0.208 1.049-0.02s0.773-0.659 1.051-1.195c0.279-0.537 0.436-1.135 0.436-1.666s-0.158-0.952-0.436-1.166c-0.14-0.108-0.304-0.16-0.482-0.157zm-4.944 2.698c-0.178 0.003-0.371 0.062-0.568 0.175-0.394 0.228-0.77 0.657-1.049 1.194-0.278 0.536-0.435 1.137-0.435 1.668s0.158 0.949 0.435 1.159c0.279 0.22 0.655 0.21 1.049-0.02 0.394-0.224 0.772-0.651 1.051-1.188 0.278-0.537 0.431-1.139 0.431-1.67s-0.154-0.947-0.431-1.162c-0.14-0.107-0.304-0.16-0.483-0.156zm-5.004 2.965c-0.178 0.003-0.371 0.062-0.568 0.175-0.394 0.228-0.774 0.659-1.053 1.196-0.278 0.54-0.435 1.13-0.435 1.67 0 0.53 0.158 0.95 0.435 1.16 0.279 0.22 0.659 0.21 1.053-0.02s0.768-0.66 1.047-1.19c0.278-0.54 0.437-1.14 0.437-1.67s-0.16-0.951-0.437-1.165c-0.14-0.107-0.3-0.16-0.479-0.156z"/>
      <path id="path8163" opacity=".2" d="m121.26 2.1269l-4.43 2.5582 51.64 29.846 4.43-2.558-51.64-29.846zm-8.85 5.1131l-4.43 2.5616 51.64 29.846 4.43-2.559-51.64-29.849zm-8.86 5.12l-4.425 2.558 51.645 29.846 4.42-2.558-51.64-29.846zm-8.847 5.113l-4.429 2.562 51.636 29.846 4.43-2.559-51.637-29.849zm-8.855 5.116l-4.426 2.562 51.638 29.846 4.43-2.558-51.642-29.85z" stroke="url(#linearGradient-1)" stroke-linecap="round"/>
      <path id="path7948" stroke="#31C6B7" d="m172.4 36.207c0 0.645 0.19 1.153 0.52 1.414 0.33 0.26 0.79 0.251 1.26-0.025 0.48-0.276 0.93-0.797 1.26-1.448 0.34-0.651 0.53-1.379 0.53-2.024s-0.19-1.153-0.53-1.413c-0.33-0.261-0.78-0.252-1.26 0.024-0.47 0.277-0.93 0.798-1.26 1.449s-0.52 1.379-0.52 2.023"/>
      <path id="path7950" stroke="#31C6B7" d="m93.484 82.212c0 0.644 0.188 1.153 0.523 1.413 0.335 0.261 0.789 0.252 1.263-0.024 0.473-0.277 0.927-0.798 1.262-1.449s0.523-1.379 0.523-2.023c0-0.645-0.188-1.153-0.523-1.414-0.335-0.26-0.789-0.251-1.262 0.025-0.474 0.276-0.928 0.797-1.263 1.448s-0.523 1.379-0.523 2.024"/>
      <path id="path7952" stroke="#31C6B7" d="m132.94 59.347c0 0.644 0.19 1.153 0.52 1.413 0.34 0.261 0.79 0.252 1.27-0.025 0.47-0.276 0.92-0.797 1.26-1.448 0.33-0.651 0.52-1.379 0.52-2.024 0-0.644-0.19-1.153-0.52-1.413-0.34-0.261-0.79-0.252-1.26 0.025-0.48 0.276-0.93 0.797-1.27 1.448-0.33 0.651-0.52 1.379-0.52 2.024"/>
      <path id="path7958" opacity=".25" fill-rule="nonzero" fill="#31C6B7" d="m130.4 59.098c-0.17 0.004-0.37 0.064-0.56 0.178-0.4 0.227-0.77 0.655-1.05 1.191-0.28 0.537-0.44 1.139-0.44 1.67s0.16 0.948 0.44 1.162c0.28 0.215 0.65 0.208 1.05-0.019 0.39-0.228 0.77-0.657 1.05-1.194 0.28-0.536 0.43-1.136 0.43-1.668 0-0.531-0.16-0.949-0.43-1.164-0.14-0.107-0.31-0.159-0.49-0.156zm-4.97 2.799c-0.18 0.003-0.37 0.062-0.57 0.176-0.39 0.227-0.77 0.657-1.05 1.193-0.28 0.537-0.43 1.137-0.43 1.668s0.16 0.948 0.43 1.162c0.28 0.215 0.66 0.208 1.05-0.019 0.4-0.228 0.77-0.657 1.05-1.194 0.28-0.536 0.44-1.137 0.44-1.668s-0.16-0.947-0.44-1.162c-0.14-0.107-0.3-0.159-0.48-0.156zm-4.98 2.98c-0.18 0.004-0.37 0.062-0.57 0.176-0.39 0.228-0.77 0.657-1.04 1.194-0.28 0.536-0.44 1.136-0.44 1.668 0 0.531 0.16 0.947 0.44 1.162 0.27 0.214 0.65 0.208 1.04-0.02 0.4-0.228 0.78-0.657 1.06-1.193 0.27-0.537 0.43-1.137 0.43-1.668s-0.16-0.948-0.43-1.162c-0.14-0.108-0.31-0.16-0.49-0.157zm-4.97 2.891c-0.18 0.003-0.37 0.06-0.57 0.174-0.39 0.228-0.77 0.659-1.05 1.195-0.28 0.537-0.43 1.135-0.43 1.666s0.15 0.952 0.43 1.166c0.28 0.215 0.66 0.206 1.05-0.021 0.4-0.228 0.77-0.655 1.05-1.192 0.28-0.536 0.44-1.138 0.44-1.67 0-0.531-0.16-0.951-0.44-1.166-0.14-0.107-0.3-0.155-0.48-0.152zm-4.98 2.846c-0.17 0.003-0.37 0.062-0.56 0.176-0.4 0.227-0.77 0.656-1.05 1.193-0.28 0.536-0.44 1.137-0.44 1.668s0.16 0.951 0.44 1.166c0.28 0.214 0.65 0.208 1.05-0.02 0.39-0.227 0.77-0.658 1.05-1.195 0.28-0.536 0.43-1.135 0.43-1.666s-0.16-0.951-0.43-1.166c-0.14-0.107-0.31-0.16-0.49-0.156zm-4.94 2.697c-0.18 0.003-0.37 0.062-0.57 0.176-0.39 0.227-0.77 0.657-1.05 1.193-0.27 0.537-0.43 1.137-0.43 1.668s0.16 0.948 0.43 1.162c0.28 0.215 0.66 0.208 1.05-0.019 0.4-0.228 0.77-0.655 1.05-1.192 0.28-0.536 0.43-1.138 0.43-1.67 0-0.531-0.15-0.947-0.43-1.162-0.14-0.107-0.3-0.159-0.48-0.156zm-5 2.965c-0.18 0.003-0.37 0.062-0.572 0.176-0.394 0.227-0.774 0.658-1.052 1.195-0.279 0.536-0.436 1.135-0.436 1.666s0.159 0.951 0.436 1.166c0.278 0.215 0.658 0.208 1.052-0.02 0.392-0.227 0.772-0.658 1.052-1.195 0.27-0.536 0.43-1.135 0.43-1.666s-0.16-0.951-0.43-1.166c-0.14-0.107-0.3-0.16-0.48-0.156z"/>
      <path id="path7960" opacity=".25" fill-rule="nonzero" fill="#31C6B7" d="m169.84 36.015c-0.18 0.004-0.37 0.064-0.56 0.178-0.4 0.228-0.78 0.655-1.05 1.191-0.28 0.537-0.44 1.139-0.44 1.67s0.16 0.948 0.44 1.162c0.27 0.215 0.65 0.208 1.05-0.019 0.39-0.228 0.77-0.657 1.05-1.194 0.27-0.536 0.43-1.136 0.43-1.668 0-0.531-0.16-0.949-0.43-1.164-0.14-0.107-0.31-0.159-0.49-0.156zm-4.97 2.799c-0.18 0.003-0.37 0.062-0.57 0.176-0.39 0.227-0.77 0.657-1.05 1.193-0.28 0.537-0.43 1.137-0.43 1.668s0.15 0.948 0.43 1.162c0.28 0.215 0.66 0.208 1.05-0.019 0.4-0.228 0.77-0.657 1.05-1.194 0.28-0.536 0.44-1.136 0.44-1.668 0-0.531-0.16-0.947-0.44-1.162-0.14-0.107-0.3-0.159-0.48-0.156zm-4.98 2.98c-0.18 0.004-0.37 0.062-0.57 0.176-0.39 0.228-0.77 0.657-1.04 1.194-0.28 0.536-0.44 1.136-0.44 1.668 0 0.531 0.16 0.947 0.44 1.162 0.27 0.214 0.65 0.208 1.04-0.02 0.4-0.228 0.78-0.657 1.05-1.193 0.28-0.537 0.44-1.137 0.44-1.668s-0.16-0.948-0.44-1.162c-0.13-0.108-0.3-0.16-0.48-0.157zm-4.97 2.891c-0.18 0.004-0.37 0.06-0.57 0.174-0.39 0.228-0.77 0.659-1.05 1.195-0.28 0.537-0.43 1.135-0.43 1.666s0.15 0.952 0.43 1.166c0.28 0.215 0.66 0.206 1.05-0.021 0.4-0.228 0.77-0.655 1.05-1.192 0.28-0.536 0.44-1.138 0.44-1.67 0-0.531-0.16-0.951-0.44-1.166-0.14-0.107-0.3-0.155-0.48-0.152zm-4.98 2.846c-0.18 0.003-0.37 0.062-0.57 0.176-0.39 0.227-0.77 0.656-1.04 1.193-0.28 0.536-0.44 1.137-0.44 1.668s0.16 0.951 0.44 1.166c0.27 0.215 0.65 0.208 1.04-0.02 0.4-0.227 0.78-0.658 1.06-1.195 0.27-0.537 0.43-1.135 0.43-1.666s-0.16-0.951-0.43-1.166c-0.14-0.107-0.31-0.16-0.49-0.156zm-4.94 2.697c-0.18 0.004-0.37 0.062-0.57 0.176-0.39 0.227-0.77 0.657-1.05 1.193-0.28 0.537-0.43 1.137-0.43 1.668s0.16 0.948 0.43 1.162c0.28 0.215 0.66 0.208 1.05-0.019 0.4-0.228 0.77-0.655 1.05-1.192 0.28-0.536 0.43-1.138 0.43-1.669 0-0.532-0.15-0.948-0.43-1.163-0.14-0.107-0.3-0.159-0.48-0.156zm-5 2.965c-0.18 0.003-0.38 0.062-0.57 0.176-0.4 0.227-0.78 0.659-1.06 1.195-0.27 0.537-0.43 1.135-0.43 1.666s0.16 0.951 0.43 1.166c0.28 0.215 0.66 0.208 1.06-0.02 0.39-0.227 0.77-0.658 1.04-1.195 0.28-0.536 0.44-1.135 0.44-1.666s-0.16-0.951-0.44-1.166c-0.14-0.107-0.3-0.16-0.47-0.156z"/>
     </g>
     <polygon id="path8183" stroke-linejoin="bevel" stroke="#31C6B7" points="97.351 21.467 52.427 47.404 15.426 26.003 60.351 0.10519"/>
     <polyline id="path8147" stroke-linejoin="bevel" stroke="#31C6B7" points="38.055 112.31 15.427 99.169 15.427 26.042 52.427 47.404 52.427 103.21"/>
     <polyline id="path8185" stroke="#31C6B7" points="46.427 57.142 46.427 60.487 20.427 45.476 23.378 43.77"/>
     <polyline id="path8187" stroke="#31C6B7" points="46.427 65.159 46.427 68.57 20.427 53.559 23.378 51.853"/>
     <polyline id="path8189" stroke="#31C6B7" points="46.427 74.142 46.427 77.807 20.427 62.796 23.378 61.091"/>
     <g id="g8177" transform="translate(22.337 103.83)">
      <polygon id="path8173" stroke="#098B7E" points="30.014 0.19386 0.014064 17.514 0.014064 46.382 30.014 63.702 60.014 46.382 60.014 17.514" fill="#fff"/>
      <polygon id="path8175" fill-rule="nonzero" points="30.514 63.702 60.014 46.382 60.014 17.514 30.514 34.835" fill="#098B7E"/>
     </g>
     <g id="g7905" opacity=".5" stroke-linejoin="bevel" stroke="#31C6B7" transform="translate(80 8)">
      <polyline id="path7899" points="17.386 27.303 35.351 16.931 35.351 58.5"/>
      <polyline id="path7901" points="35.351 16.931 6.351 0.18819 0.35105 3.6523"/>
     </g>
     <path id="path7907" opacity=".25" stroke-linejoin="bevel" stroke="#31C6B7" d="m115.35 68.272v4"/>
     <path id="path7909" opacity=".25" stroke-linejoin="bevel" stroke="#31C6B7" d="m115.35 73.429v2.309"/>
    </g>
    <g id="g8237" transform="translate(164.5 178.88)">
     <path id="path8231" stroke-linejoin="round" stroke="url(#linearGradient-2)" d="m6 5.5738l66 39.275c8 4.618 8 4.618 16-0.001l55-31.767"/>
     <polygon id="path8233" stroke="#895DD8" points="5.9999 5.5738 3.0074 7.3033 0.014912 5.5738 0.014912 2.1147 3.0074 0.38522 5.9999 2.1147"/>
     <polygon id="path8235" stroke="#31C6B7" points="149 13.08 146 14.813 143 13.08 143 9.6143 146 7.8814 149 9.6143"/>
    </g>
    <g id="g8681" stroke-linejoin="bevel" stroke="#93CF10" transform="translate(579 106.98)">
     <polygon id="path8612" points="35.5 69.392 65.5 52.071 65.5 40.524 35.5 57.845"/>
     <polygon id="path8616" points="0.49973 37.637 35.5 57.966 65.5 40.524 30.5 20.317"/>
     <polygon id="path8614" points="35.5 69.392 0.49973 49.184 0.49973 37.637 35.5 57.845"/>
     <path id="path8648" d="m37.519 24.347l-0.019-22.619c0-2.3092 2-1.1544 2 1.155v22.63"/>
     <path id="path8650" d="m48.519 30.698l-0.019-22.619c0-2.3095 2-1.1547 2 1.1547v22.63"/>
     <path id="path8652" d="m60.519 37.626l-0.019-22.619c0-2.309 2-1.154 2 1.155v22.63"/>
    </g>
    <g id="g8661" opacity=".5" fill-rule="nonzero" fill="#93CF0F" transform="translate(581.5 148.98)">
     <polygon id="path7823" points="25.5 15.192 25.5 18.577 26.5 19.153 26.5 20.309 28.5 21.464 28.5 20.309 29.5 20.886 29.5 17.423"/>
     <polygon id="path7819" points="20.5 12.305 20.5 15.689 21.5 16.266 21.5 17.422 23.5 18.576 23.5 17.422 24.5 17.998 24.5 14.535"/>
     <polygon id="path7815" points="15.5 9.4178 15.5 12.803 16.5 13.379 16.5 14.535 18.5 15.689 18.5 14.535 19.5 15.111 19.5 11.648"/>
     <polygon id="path7811" points="10.5 6.5312 10.5 9.916 11.5 10.492 11.5 11.648 13.5 12.803 13.5 11.648 14.5 12.225 14.5 8.7616"/>
     <polygon id="path7807" points="5.4997 3.6444 5.4997 7.0292 6.4997 7.6054 6.4997 8.7616 8.4997 9.9159 8.4997 8.7616 9.4997 9.3378 9.4997 5.8749"/>
     <polygon id="path7803" points="0.5 0.75753 0.5 4.1423 1.5 4.7185 1.5 5.8747 3.5 7.029 3.5 5.8747 4.5 6.4509 4.5 2.988"/>
    </g>
    <g id="g8975" transform="translate(351.5 47.429)">
     <g id="g8229" transform="translate(0.5 .58294)">
      <path id="path8195" fill-rule="nonzero" fill="#31C6B7" d="m29.175 0.89032l-18.175 10.506v1.141l18.175-10.505v-1.1417zm0 3.4509l-13.175 7.6188v1.141l13.175-7.6186v-1.1412zm-19.175 7.6328l-3.9998 2.309v1.141l4-2.309-0.0002-1.141zm5.0042 0.561l-9.004 5.199-0.0002 1.141 9.0002-5.196 0.004-1.144zm14.171-4.7299l-5.675 3.2669v1.141l5.679-3.2644-0.004-1.1435zm-6.675 3.8439l-8.496 4.932v1.142l8.496-4.932v-1.142zm-9.496 5.51l-6.9999 4.041-0.0004 1.141 7.0003-4.041v-1.141zm2.996 1.729l-4 2.31v1.155l4-2.31v-1.155zm-5 2.887l-5 2.887v1.155l5-2.887v-1.155z"/>
      <path id="path8197" stroke="#31C6B7" d="m15.5 40.736c0 0.536 0.158 0.959 0.44 1.176 0.281 0.217 0.662 0.209 1.06-0.021 0.398-0.229 0.78-0.663 1.061-1.205 0.281-0.541 0.439-1.147 0.439-1.683 0-0.537-0.158-0.96-0.439-1.176-0.281-0.217-0.663-0.21-1.061 0.02s-0.779 0.663-1.06 1.205c-0.282 0.542-0.44 1.148-0.44 1.684"/>
      <path id="path8199" opacity=".5" stroke="#31C6B7" d="m20.5 37.849c0 0.536 0.158 0.959 0.44 1.176 0.281 0.217 0.662 0.209 1.06-0.021 0.398-0.229 0.78-0.663 1.061-1.205 0.281-0.541 0.439-1.147 0.439-1.683 0-0.537-0.158-0.96-0.439-1.176-0.281-0.217-0.663-0.21-1.061 0.02s-0.779 0.664-1.06 1.205c-0.282 0.542-0.44 1.148-0.44 1.684"/>
      <path id="path8201" stroke="#31C6B7" d="m25.5 34.962c0 0.537 0.158 0.96 0.44 1.177 0.281 0.216 0.662 0.209 1.06-0.021s0.78-0.663 1.061-1.205 0.439-1.148 0.439-1.684-0.158-0.959-0.439-1.176-0.663-0.209-1.061 0.021-0.779 0.663-1.06 1.205c-0.282 0.541-0.44 1.147-0.44 1.683"/>
      <path id="path8203" opacity=".5" stroke="#31C6B7" d="m30.5 32.076c0 0.536 0.158 0.959 0.439 1.176 0.282 0.216 0.663 0.209 1.061-0.021s0.779-0.663 1.061-1.205c0.281-0.542 0.439-1.147 0.439-1.684 0-0.536-0.158-0.959-0.439-1.176-0.282-0.216-0.663-0.209-1.061 0.021s-0.779 0.663-1.061 1.205c-0.281 0.542-0.439 1.147-0.439 1.684"/>
      <path id="path8205" opacity=".5" stroke="#31C6B7" d="m20.5 44.777c0 0.536 0.158 0.959 0.44 1.176 0.281 0.217 0.662 0.209 1.06-0.021 0.398-0.229 0.78-0.663 1.061-1.205 0.281-0.541 0.439-1.147 0.439-1.683 0-0.537-0.158-0.96-0.439-1.176-0.281-0.217-0.663-0.21-1.061 0.02s-0.779 0.663-1.06 1.205c-0.282 0.542-0.44 1.148-0.44 1.684"/>
      <path id="path8207" stroke="#31C6B7" d="m25.5 41.89c0 0.537 0.158 0.96 0.44 1.177 0.281 0.216 0.662 0.209 1.06-0.021s0.78-0.663 1.061-1.205 0.439-1.148 0.439-1.684-0.158-0.959-0.439-1.176-0.663-0.209-1.061 0.021c-0.398 0.229-0.779 0.663-1.06 1.205-0.282 0.541-0.44 1.147-0.44 1.683"/>
      <path id="path8209" stroke="#31C6B7" d="m30.5 39.004c0 0.536 0.158 0.959 0.439 1.176 0.282 0.216 0.663 0.209 1.061-0.021s0.779-0.663 1.061-1.205c0.281-0.542 0.439-1.147 0.439-1.684 0-0.536-0.158-0.959-0.439-1.176-0.282-0.216-0.663-0.209-1.061 0.021s-0.779 0.663-1.061 1.205c-0.281 0.542-0.439 1.147-0.439 1.684"/>
      <path id="path8211" fill-rule="nonzero" fill="#31C6B7" d="m10 41.406l-0.9998 0.576v2.297l-1 0.59v4.619l1-0.578v9.238l0.9998-0.578v-9.236l1-0.578v-4.659l-1 0.59v-2.281zm0 3.463v2.31l-0.9998 0.577v-2.309l0.9998-0.578z"/>
      <path id="path8217" fill-rule="nonzero" fill="#31C6B7" d="m6.0002 43.715l-1 0.578v9.263l-1 0.59v4.619l1-0.578v2.27l1-0.576v-2.27l1-0.578v-4.658l-1 0.59v-9.25zm0 10.431v2.311l-1 0.576v-2.309l1-0.578z"/>
      <path id="path8223" fill-rule="nonzero" fill="#31C6B7" d="m2.0002 46.023l-1 0.578v2.297l-1 0.59-0.000027 4.619 1-0.578v9.238l1-0.578v-9.236l1-0.578v-4.659l-1 0.59v-2.283zm0 3.465v2.309l-1 0.578v-2.309l1-0.578z"/>
     </g>
    </g>
    <path id="path1214" stroke-linejoin="bevel" d="m606.5 37.807v6.928" fill-rule="nonzero" stroke="#93CF10" fill="#93CF10"/>
    <path id="path1216" stroke-linejoin="bevel" d="m645.5 60.323v6.928" fill-rule="nonzero" stroke="#93CF10" fill="#93CF10"/>
    <path id="path1238" stroke-linejoin="bevel" d="m606.5 49.353v6.929" fill-rule="nonzero" stroke="#93CF10" fill="#93CF10"/>
    <path id="path1240" stroke-linejoin="bevel" d="m645.5 71.87v6.928" fill-rule="nonzero" stroke="#93CF10" fill="#93CF10"/>
    <path id="path1246" stroke-linejoin="bevel" d="m606.5 60.901v6.928" fill-rule="nonzero" stroke="#93CF10" fill="#93CF10"/>
    <path id="path1248" stroke-linejoin="bevel" d="m645.5 83.417v6.928" fill-rule="nonzero" stroke="#93CF10" fill="#93CF10"/>
    <path id="path1254" stroke-linejoin="bevel" d="m606.5 72.448v6.928" fill-rule="nonzero" stroke="#93CF10" fill="#93CF10"/>
    <path id="path1256" stroke-linejoin="bevel" d="m645.5 94.964v6.926" fill-rule="nonzero" stroke="#93CF10" fill="#93CF10"/>
    <path id="path1262" stroke-linejoin="bevel" d="m606.5 83.57v6.928" fill-rule="nonzero" stroke="#93CF10" fill="#93CF10"/>
    <path id="path7903" fill-rule="nonzero" fill="#652BBC" d="m144.61 64.532c-14.26-8.241-25.82-2.006-25.82 13.929 0 12.749 7.4 27.839 17.66 37.589 1.29 1.01 1.76 0.39 1.76-0.37 0-0.69-0.02-2.98-0.03-5.4-7.18-2.4-8.7-8.43-8.7-8.43-1.17-4.011-2.87-5.876-2.87-5.876-2.34-3.145 0.18-1.652 0.18-1.652 2.59 1.702 3.96 5.261 3.96 5.261 2.3 5.747 6.04 6.627 7.51 6.737 0.23-1.73 0.9-2.61 1.64-2.91-5.73-4.041-11.76-9.999-11.76-21.055 0-3.15 1.01-5.141 2.66-6.207-0.27-0.881-1.15-4.327 0.25-7.491 0 0 2.17 0.478 7.1 7.063 2.06 0.551 4.27 1.507 6.46 2.764 2.2 1.279 4.41 2.878 6.47 4.71 4.93-0.885 7.1 1.142 7.1 1.142 1.4 4.786 0.52 7.21 0.25 7.782 1.65 2.977 2.66 6.13 2.66 9.282 0 11.08-6.04 10.03-11.79 7.42 0.92 1.43 1.75 3.66 1.75 6.36 0 3.86-0.03 6.95-0.03 7.9 0 0.76 0.46 1.93 1.77 2.41 10.25 2.1 17.64-4.44 17.64-17.18 0-15.938-11.56-35.537-25.82-43.779v0.001"/>
    <path id="path1060" fill-rule="nonzero" fill="#93CF0F" d="m526.75 177.51l-0.5 0.87 21 12.12c3.54 2.04 5.7 2.69 7.86 2.22 2.15-0.46 4.16-1.94 7.64-3.95l15.17-8.76v-1.15l-15.67 9.04c-3.52 2.04-5.51 3.45-7.36 3.85-1.84 0.39-3.67-0.11-7.14-2.11l-21-12.13z"/>
    <path id="path1054" fill-rule="nonzero" fill="url(#linearGradient-3)" d="m470.94 145.13l-0.5 0.87 116.82 67.58c3.5 2.02 5.33 3.1 7.39 3.03 2.07-0.08 4.11-1.3 8.11-3.6l51.16-29.53v-1.16l-51.66 29.82c-4 2.31-5.96 3.4-7.64 3.47-1.69 0.06-3.36-0.88-6.86-2.9l-116.82-67.58z"/>
    <path id="path1072" fill-rule="nonzero" fill="#31C6B7" d="m467.5 139.68l-3.5 2.02v4.05l3.5 2.02 3.5-2.02v-0.29-3.76l-3.5-2.02zm0 1.16l2.5 1.44v2.89l-2.5 1.45-2.5-1.45v-2.89l2.5-1.44z"/>
    <path id="path1066" fill-rule="nonzero" fill="url(#linearGradient-4)" d="m588.83 121.75l-66.58 38.44c-4 2.31-7.22 4.16-10.25 4.93-3.02 0.77-5.84 0.51-9.25-1.46l-14-8.09-0.5 0.87 14 8.08c3.59 2.08 6.77 2.39 10 1.57s6.5-2.72 10.5-5.03l66.08-38.15v-1.16z"/>
    <g id="g8297" fill-rule="nonzero" fill="#6F9E08" transform="translate(652.98 169.48)">
     <path id="path1898" d="m8.5195 0.28711l-8.416 4.877 0.00002 8.6429 0.20703 0.119 8.209 4.758 8.4144-4.877v-8.6429l-8.4145-4.877zm0 0.96089l7.5845 4.3965v7.6835l-7.5845 4.395-7.584-4.395 0.00005-7.6835 7.584-4.3965z"/>
     <polygon id="path8295" opacity=".75" points="16.519 5.4042 8.5234 10.061 8.5234 17.789 16.519 13.132"/>
    </g>
    <g id="g976" fill-rule="nonzero" fill="#6F9E08" transform="translate(576.98 166.08)">
     <path id="path971" d="m8.5195 0.28711l-8.416 4.877 0.00002 8.6429 0.20703 0.119 8.209 4.758 8.4144-4.877v-8.6429l-8.4145-4.877zm0 0.96089l7.5845 4.3965v7.6835l-7.5845 4.395-7.584-4.395 0.00005-7.6835 7.584-4.3965z"/>
     <polygon id="path974" opacity=".75" points="16.519 5.4042 8.5234 10.061 8.5234 17.789 16.519 13.132"/>
    </g>
    <g id="g987" fill-rule="nonzero" fill="#6F9E08" transform="translate(587.9 108.88)">
     <path id="path983" d="m8.5195 0.28711l-8.416 4.877 0.00002 8.6429 0.20703 0.119 8.209 4.758 8.4144-4.877v-8.6429l-8.4145-4.877zm0 0.96089l7.5845 4.3965v7.6835l-7.5845 4.395-7.584-4.395 0.00005-7.6835 7.584-4.3965z"/>
     <polygon id="path985" opacity=".75" points="16.519 5.4042 8.5234 10.061 8.5234 17.789 16.519 13.132"/>
    </g>
    <path id="path1264" stroke-linejoin="bevel" d="m645.5 106.39v6.92" fill-rule="nonzero" stroke="#93CF10" fill="#93CF10"/>
    <g id="g1151" opacity=".15" fill-rule="nonzero" transform="translate(655 116)">
     <g id="g2218" transform="translate(.018593 18.408)">
      <path id="path1381" fill-opacity="0" fill="#fff" d="m5.3328 3.9829c-6.4437 3.706-6.4438 9.7141-0.0002 13.42 6.4434 3.706 16.89 3.706 23.334 0 3.095-1.779 4.833-4.193 4.833-6.71 0-2.5168-1.738-4.9305-4.833-6.7102-3.094-1.7796-7.291-2.7794-11.667-2.7794s-8.5728 0.9998-11.667 2.7795h-0.0002"/>
      <path id="path1407" fill="#93CF10" d="m17.001 0.70363c-4.452 0.00003-8.7225 1.009-11.916 2.8457-3.3231 1.9112-5.084 4.4949-5.0841 7.1447 0.000037 0.012 0.002037 0.023 0.002037 0.035 0 0 0.004 2.526 0.0156 3.098 0.0525 2.603 1.7964 5.13 5.0645 7.009 6.646 3.823 17.19 3.823 23.836 0 3.184-1.83 5.068-4.379 5.08-7.117h0.002c0-0.005-0.002-0.009-0.002-0.013s0.002-0.008 0.002-0.012c0-0.504-0.006-2.889-0.006-2.934 0-0.022 0.006-0.044 0.006-0.066 0-2.7471-1.89-5.3079-5.084-7.1446s-7.464-2.8457-11.916-2.8457v-0.00007zm0 4.0469c4.149 0 8.297 0.8986 11.418 2.6934 2.33 1.34 3.794 3.0101 4.336 4.7621-0.541 1.752-2.005 3.425-4.336 4.765-6.241 3.59-16.595 3.59-22.836 0-2.3947-1.377-3.806-3.037-4.336-4.732 0.5089-1.717 1.9115-3.4008 4.336-4.7951 3.1205-1.7947 7.269-2.6934 11.418-2.6934z"/>
      <path id="path1389" fill-opacity="0" fill="#fff" d="m0.50281 10.729s0.004 2.544 0.0149 3.087c0.0481 2.387 1.6462 4.765 4.8143 6.587 6.444 3.706 16.892 3.706 23.336 0 3.094-1.78 4.832-4.193 4.832-6.709 0-0.507-0.003-2.96-0.003-2.96"/>
      <path id="path1373" fill-opacity="0" fill="#fff" d="m0.51771 13.597c0.0481-2.387 1.6462-4.7646 4.8143-6.5867 6.444-3.7059 16.892-3.706 23.336 0 3.094 1.7796 4.832 4.1917 4.832 6.7087"/>
      <path id="path1332" fill-opacity="0" fill="#fff" d="m15.263 9.8307c-0.959 0.4823-0.959 1.2653 0 1.7483s2.515 0.483 3.474 0c0.461-0.232 0.719-0.546 0.719-0.874s-0.258-0.642-0.719-0.8743c-0.461-0.2319-1.085-0.3621-1.737-0.3621s-1.276 0.1302-1.737 0.3621"/>
      <path id="path1360" fill="#93CF10" d="m6.2548 7.8599l-0.1796 0.1015c-1.7533 0.9985-2.7676 2.4866-2.7676 2.4866l-0.5391 0.783h11.42c0.168 0.326 0.468 0.602 0.852 0.795 1.153 0.58 2.769 0.58 3.922 0 0.326-0.164 0.598-0.394 0.779-0.67l8.029 2.195 0.18-0.101c1.753-0.999 2.768-2.487 2.768-2.487l0.537-0.783h-11.44c-0.17-0.3342-0.478-0.6062-0.853-0.7947-0.556-0.2797-1.243-0.416-1.961-0.416s-1.405 0.1363-1.961 0.416c-0.332 0.1671-0.6 0.3956-0.777 0.6637l-8.0082-2.1891z"/>
      <path id="path1324" fill-opacity="0" fill="#fff" d="m14.855 10.73h-11.136c-0.0002 0 0.9629-1.4006 2.6024-2.3343l8.5336 2.3343z"/>
      <path id="path1340" fill-opacity="0" fill="#fff" d="m19.168 10.68h11.136s-0.963 1.401-2.602 2.334l-8.534-2.334z"/>
     </g>
     <g id="g2232" transform="translate(63.925 18.408)">
      <path id="path1463" fill-opacity="0" fill="#fff" d="m6.3328 3.9829c-6.4437 3.706-6.4438 9.7141-0.0002 13.42 6.4434 3.706 16.89 3.706 23.334 0 3.095-1.779 4.833-4.193 4.833-6.71 0-2.5168-1.738-4.9305-4.833-6.7102-3.094-1.7796-7.291-2.7794-11.667-2.7794s-8.5728 0.9998-11.667 2.7795h-0.0002"/>
      <path id="path1496" fill="#93CF10" d="m17.999 0.70363c-4.452 0.00003-8.7222 1.009-11.916 2.8457-3.3229 1.9112-5.0838 4.4949-5.0838 7.1447 0.00001 0.012 0.002 0.023 0.002 0.035 0 0 0.004 2.526 0.0156 3.098 0.0525 2.603 1.7964 5.13 5.0645 7.009 6.6457 3.823 17.19 3.823 23.836 0 3.184-1.83 5.069-4.379 5.08-7.117h0.002c0-0.005-0.002-0.009-0.002-0.013s0.002-0.008 0.002-0.012c0-0.509-0.004-2.961-0.004-2.961 0-0.013 0.004-0.026 0.004-0.039 0-2.7472-1.89-5.308-5.084-7.1447-3.193-1.8367-7.464-2.8457-11.916-2.8457v0.00003zm0 4.0469c4.149 0 8.298 0.8986 11.418 2.6934 2.33 1.34 3.795 3.0101 4.336 4.7621-0.541 1.752-2.005 3.425-4.336 4.765-6.241 3.59-16.595 3.59-22.836 0-2.3944-1.377-3.8038-3.037-4.3337-4.732 0.5088-1.717 1.9095-3.4008 4.3339-4.7951 3.1206-1.7947 7.2698-2.6934 11.418-2.6934z"/>
      <path id="path1479" fill-opacity="0" fill="#fff" d="m1.5028 10.729s0.004 2.544 0.0149 3.087c0.0481 2.387 1.6462 4.765 4.8143 6.587 6.444 3.706 16.892 3.706 23.336 0 3.094-1.78 4.832-4.193 4.832-6.709 0-0.507-0.003-2.96-0.003-2.96"/>
      <path id="path1471" fill-opacity="0" fill="#fff" d="m1.5177 13.597c0.0481-2.387 1.6462-4.7646 4.8143-6.5867 6.444-3.7059 16.892-3.706 23.336 0 3.094 1.7796 4.832 4.1917 4.832 6.7087"/>
      <path id="path1414" fill-opacity="0" fill="#fff" d="m16.263 9.8307c-0.959 0.4823-0.959 1.2653 0 1.7483s2.515 0.483 3.474 0c0.461-0.232 0.719-0.546 0.719-0.874s-0.258-0.642-0.719-0.8743c-0.461-0.2319-1.085-0.3621-1.737-0.3621s-1.276 0.1302-1.737 0.3621"/>
      <path id="path1444" fill="#93CF10" d="m25.118 6.106l-5.371 3.1894c-0.515-0.2153-1.117-0.3261-1.748-0.3261-0.718 0-1.405 0.1363-1.961 0.416-0.576 0.2901-0.996 0.7517-0.996 1.3207 0 0.111 0.031 0.213 0.061 0.316l-10.942 2.861 0.5667 0.614c1.655 1.786 3.7597 2.748 3.7597 2.748l0.2715 0.125 7.1371-5.434c0.049 0.029 0.091 0.064 0.142 0.09 1.153 0.58 2.769 0.58 3.922 0 0.556-0.28 0.996-0.729 0.996-1.32 0-0.193-0.058-0.364-0.14-0.526l10.093-0.9237-0.937-0.7734c-2.088-1.7211-4.656-2.3301-4.656-2.3301l-0.198-0.0468z"/>
      <path id="path1422" fill-opacity="0" fill="#fff" d="m15.85 11.344l-7.1528 5.445s-2.0295-0.937-3.6011-2.633l10.754-2.812z"/>
      <path id="path1430" fill-opacity="0" fill="#fff" d="m19.949 9.7586l5.25-3.1194s2.48 0.6008 4.455 2.2296l-9.705 0.8898z"/>
     </g>
     <g id="g2260" transform="translate(32.472 .59635)">
      <path id="path1588" fill-opacity="0" fill="#fff" d="m5.3328 2.9829c-6.4437 3.706-6.4438 9.7141-0.0002 13.42 6.4434 3.706 16.89 3.706 23.334 0 3.095-1.779 4.833-4.193 4.833-6.71 0-2.5168-1.738-4.9305-4.833-6.7102-3.094-1.7796-7.291-2.7794-11.667-2.7794-4.376 0.00004-8.5728 0.9998-11.667 2.7795h-0.0002"/>
      <path id="path1596" fill-opacity="0" fill="#fff" d="m0.50281 9.7287s0.004 2.5443 0.0149 3.0873c0.0481 2.387 1.6462 4.765 4.8143 6.587 6.444 3.706 16.892 3.706 23.336 0 3.094-1.78 4.832-4.193 4.832-6.709 0-0.507-0.003-2.9598-0.003-2.9598"/>
      <path id="path1580" fill-opacity="0" fill="#fff" d="m0.51771 12.597c0.0481-2.387 1.6462-4.7646 4.8143-6.5867 6.444-3.7059 16.892-3.706 23.336 0 3.094 1.7796 4.832 4.1917 4.832 6.7087"/>
      <path id="path1539" fill-opacity="0" fill="#fff" d="m15.263 8.8307c-0.959 0.4828-0.959 1.2653 0 1.7483s2.515 0.483 3.474 0c0.461-0.232 0.719-0.546 0.719-0.8742 0-0.3278-0.258-0.6423-0.719-0.8741-0.461-0.2319-1.085-0.3621-1.737-0.3621s-1.276 0.1302-1.737 0.3621"/>
      <path id="path1567" fill="#93CF10" d="m17.538 2.6578l-0.471 0.0196-0.107 5.2929c-0.704 0.005-1.376 0.1396-1.922 0.4141-0.576 0.2902-0.996 0.7512-0.996 1.3203 0 0.5693 0.42 1.0303 0.996 1.3203 0.253 0.127 0.531 0.222 0.819 0.293l-6.688 5.309 0.857 0.3c3.482 1.216 6.461 0.864 6.461 0.864l0.444-0.053-0.02-6.281c0.722 0.013 1.448-0.129 2.049-0.432 0.556-0.28 0.996-0.729 0.996-1.3203 0-0.591-0.44-1.0406-0.996-1.3203-0.343-0.1726-0.738-0.2846-1.158-0.3496l5.834-4.7051-1.043-0.2109c-2.727-0.5541-5.055-0.461-5.055-0.461z"/>
      <path id="path1547" fill-opacity="0" fill="#fff" d="m17.468 7.6634l5.027-4.0551c-2.662-0.5409-4.936-0.4496-4.936-0.4496l-0.091 4.5047z"/>
      <path id="path1531" fill-opacity="0" fill="#fff" d="m16.412 11.517l-6.22 4.938c3.37 1.177 6.237 0.839 6.237 0.839l-0.017-5.777z"/>
     </g>
     <path id="path1503" fill="#93CF10" d="m44.26 22.232c-0.246 0.989-0.767 1.751-1.463 2.374-0.984 0.881-2.342 1.458-3.723 1.816-2.762 0.717-5.56 0.561-5.56 0.561l-0.516-0.031-0.172 6.105h0.027l-0.027 1 0.51 0.006s2.754 0.027 5.478 0.828c1.362 0.4 2.706 0.994 3.676 1.834 0.971 0.84 1.582 1.889 1.582 3.348v0.508l10.957-0.172v-0.493c0-1.403 0.59-2.414 1.53-3.228 0.939-0.815 2.24-1.396 3.56-1.789 2.641-0.786 5.313-0.828 5.313-0.828l0.507-0.006-0.029-1h0.029l-0.173-6.106-0.516 0.034s-2.787 0.166-5.535-0.547c-1.374-0.357-2.724-0.935-3.703-1.821-0.69-0.623-1.209-1.386-1.456-2.378-4.219 0.521-6.284 0.543-10.296-0.015z"/>
     <g id="g2246" transform="translate(31.472 37.26)">
      <path id="path1290" fill-opacity="0" fill="#fff" d="m6.3328 3.9829c-6.4437 3.706-6.4438 9.7141-0.0002 13.42 6.4434 3.706 16.89 3.706 23.334 0 3.095-1.779 4.833-4.193 4.833-6.71 0-2.5168-1.738-4.9305-4.833-6.7102-3.094-1.7796-7.291-2.7794-11.667-2.7794s-8.5728 0.9998-11.667 2.7795h-0.0002"/>
      <path id="path1317" fill="#93CF10" d="m17.999 0.7034c-4.452 0.00003-8.7223 1.009-11.916 2.8457-3.323 1.9112-5.0839 4.4948-5.0839 7.1449-0.00001 0.011 0.002 0.023 0.002 0.035 0 0 0.004 2.526 0.0156 3.097 0.0525 2.604 1.7964 5.131 5.0644 7.01 6.6459 3.823 17.19 3.823 23.836 0 3.184-1.831 5.068-4.38 5.08-7.117h0.002c0-0.005-0.002-0.009-0.002-0.014 0-0.004 0.002-0.008 0.002-0.011 0-0.507-0.004-2.93-0.004-2.95v-0.011c0-0.013 0.004-0.026 0.004-0.039 0-2.7474-1.89-5.3082-5.084-7.1449-3.193-1.8367-7.464-2.8457-11.916-2.8457zm0 4.0469c4.149 0 8.297 0.8986 11.418 2.6933 2.33 1.3401 3.797 3.0104 4.338 4.7614-0.541 1.753-2.007 3.425-4.338 4.766-6.241 3.589-16.595 3.589-22.836 0-2.3945-1.377-3.8039-3.037-4.3339-4.732 0.5089-1.717 1.9096-3.401 4.334-4.7954 3.1206-1.7947 7.2689-2.6933 11.418-2.6933z"/>
      <path id="path1282" fill-opacity="0" fill="#fff" d="m1.5028 10.729s0.004 2.544 0.0149 3.087c0.0481 2.387 1.6462 4.765 4.8143 6.587 6.444 3.706 16.892 3.706 23.336 0 3.094-1.78 4.832-4.193 4.832-6.709 0-0.507-0.003-2.96-0.003-2.96"/>
      <path id="path1298" fill-opacity="0" fill="#fff" d="m1.5177 13.597c0.0481-2.387 1.6462-4.7646 4.8143-6.5867 6.444-3.7059 16.892-3.706 23.336 0 3.094 1.7796 4.832 4.1917 4.832 6.7087"/>
      <path id="path1241" fill-opacity="0" fill="#fff" d="m16.263 9.8307c-0.959 0.4823-0.959 1.2653 0 1.7483s2.515 0.483 3.474 0c0.461-0.232 0.719-0.546 0.719-0.874s-0.258-0.642-0.719-0.8743c-0.461-0.2319-1.085-0.3621-1.737-0.3621s-1.276 0.1302-1.737 0.3621"/>
      <path id="path1269" fill="#93CF10" d="m17.55 3.805s-2.328-0.0952-5.055 0.4589l-1.043 0.2129 5.668 4.5704c-0.391 0.0672-0.76 0.1758-1.082 0.3378-0.576 0.2902-0.996 0.751-0.996 1.32s0.42 1.03 0.996 1.321c0.626 0.315 1.388 0.452 2.139 0.425v0.209l-0.02 6.225 0.444 0.053s2.979 0.35 6.461-0.865l0.857-0.299-6.846-5.436c0.314-0.072 0.613-0.175 0.887-0.312 0.556-0.28 0.996-0.73 0.996-1.321s-0.44-1.0403-0.996-1.32c-0.522-0.263-1.163-0.3948-1.834-0.4102l-0.004-0.1757-0.101-4.9746-0.471-0.0195z"/>
      <path id="path1233" fill-opacity="0" fill="#fff" d="m17.622 8.809l-5.027-4.0551c2.661-0.5409 4.935-0.4496 4.935-0.4496l0.092 4.5047z"/>
      <path id="path1249" fill-opacity="0" fill="#fff" d="m18.678 12.662l6.22 4.938c-3.37 1.177-6.238 0.84-6.238 0.84l0.018-5.778z"/>
     </g>
    </g>
    <g id="g1227" transform="translate(655 78.297)">
     <g id="g1165" fill-opacity="0" fill-rule="nonzero" transform="translate(.018593 19.408)" stroke="#93CF10" fill="#fff">
      <path id="path1153" d="m5.3328 2.9829c-6.4437 3.706-6.4438 9.7141-0.0002 13.42 6.4434 3.706 16.89 3.706 23.334 0 3.095-1.779 4.833-4.193 4.833-6.71 0-2.5168-1.738-4.9305-4.833-6.7102-3.094-1.7796-7.291-2.7794-11.667-2.7794-4.376 0.00004-8.5728 0.9998-11.667 2.7795h-0.0002"/>
      <path id="path1155" d="m0.50281 9.7287s0.004 2.5443 0.0149 3.0873c0.0481 2.387 1.6462 4.765 4.8143 6.587 6.444 3.706 16.892 3.706 23.336 0 3.094-1.78 4.832-4.193 4.832-6.709 0-0.507-0.003-2.9598-0.003-2.9598"/>
      <path id="path1157" opacity=".5" d="m0.51771 12.597c0.0481-2.387 1.6462-4.7646 4.8143-6.5867 6.444-3.7059 16.892-3.706 23.336 0 3.094 1.7796 4.832 4.1917 4.832 6.7087"/>
      <path id="path1159" d="m15.263 8.8307c-0.959 0.4828-0.959 1.2653 0 1.7483s2.515 0.483 3.474 0c0.461-0.232 0.719-0.546 0.719-0.8742 0-0.3278-0.258-0.6423-0.719-0.8741-0.461-0.2319-1.085-0.3621-1.737-0.3621s-1.276 0.1302-1.737 0.3621"/>
      <path id="path1161" d="m14.855 9.73h-11.136c-0.0002 0 0.9629-1.4006 2.6024-2.3343l8.5336 2.3343z"/>
      <path id="path1163" d="m19.168 9.68h11.136s-0.963 1.401-2.602 2.334l-8.534-2.334z"/>
     </g>
     <g id="g1179" fill-opacity="0" fill-rule="nonzero" transform="translate(64.925 19.408)" stroke="#93CF10" fill="#fff">
      <path id="path1167" d="m5.3328 2.9829c-6.4437 3.706-6.4438 9.7141-0.0002 13.42 6.4434 3.706 16.89 3.706 23.334 0 3.095-1.779 4.833-4.193 4.833-6.71 0-2.5168-1.738-4.9305-4.833-6.7102-3.094-1.7796-7.291-2.7794-11.667-2.7794-4.376 0.00004-8.5728 0.9998-11.667 2.7795h-0.0002"/>
      <path id="path1169" d="m0.50281 9.7287s0.004 2.5443 0.0149 3.0873c0.0481 2.387 1.6462 4.765 4.8143 6.587 6.444 3.706 16.892 3.706 23.336 0 3.094-1.78 4.832-4.193 4.832-6.709 0-0.507-0.003-2.9598-0.003-2.9598"/>
      <path id="path1171" opacity=".5" d="m0.51771 12.597c0.0481-2.387 1.6462-4.7646 4.8143-6.5867 6.444-3.7059 16.892-3.706 23.336 0 3.094 1.7796 4.832 4.1917 4.832 6.7087"/>
      <path id="path1173" d="m15.263 8.8307c-0.959 0.4828-0.959 1.2653 0 1.7483s2.515 0.483 3.474 0c0.461-0.232 0.719-0.546 0.719-0.8742 0-0.3278-0.258-0.6423-0.719-0.8741-0.461-0.2319-1.085-0.3621-1.737-0.3621s-1.276 0.1302-1.737 0.3621"/>
      <path id="path1175" d="m14.85 10.344l-7.1528 5.445s-2.0295-0.937-3.6011-2.633l10.754-2.812z"/>
      <path id="path1177" d="m18.949 8.7586l5.25-3.1194s2.48 0.6008 4.455 2.2296l-9.705 0.8898z"/>
     </g>
     <g id="g1193" fill-opacity="0" fill-rule="nonzero" transform="translate(32.472 .59635)" stroke="#93CF10" fill="#fff">
      <path id="path1181" d="m5.3328 2.9829c-6.4437 3.706-6.4438 9.7141-0.0002 13.42 6.4434 3.706 16.89 3.706 23.334 0 3.095-1.779 4.833-4.193 4.833-6.71 0-2.5168-1.738-4.9305-4.833-6.7102-3.094-1.7796-7.291-2.7794-11.667-2.7794-4.376 0.00004-8.5728 0.9998-11.667 2.7795h-0.0002"/>
      <path id="path1183" d="m0.50281 9.7287s0.004 2.5443 0.0149 3.0873c0.0481 2.387 1.6462 4.765 4.8143 6.587 1.9977 1.149 4.3804 1.941 6.909 2.378m9.347 0.029c2.592-0.43 5.037-1.233 7.08-2.407 3.094-1.78 4.832-4.193 4.832-6.709 0-0.507-0.003-2.9598-0.003-2.9598"/>
      <path id="path1185" opacity=".5" d="m0.51771 12.597c0.0481-2.387 1.6462-4.7646 4.8143-6.5867 6.444-3.7059 16.892-3.706 23.336 0 3.094 1.7796 4.832 4.1917 4.832 6.7087"/>
      <path id="path1187" d="m15.263 8.8307c-0.959 0.4828-0.959 1.2653 0 1.7483s2.515 0.483 3.474 0c0.461-0.232 0.719-0.546 0.719-0.8742 0-0.3278-0.258-0.6423-0.719-0.8741-0.461-0.2319-1.085-0.3621-1.737-0.3621s-1.276 0.1302-1.737 0.3621"/>
      <path id="path1189" d="m17.468 7.6634l5.027-4.0551c-2.662-0.5409-4.936-0.4496-4.936-0.4496l-0.091 4.5047z"/>
      <path id="path1191" d="m16.412 11.517l-6.22 4.938c3.37 1.177 6.237 0.839 6.237 0.839l-0.017-5.777z"/>
     </g>
     <g id="g1197" stroke="#93CF10" transform="translate(33 20.838)">
      <path id="path1195" d="m32.425 11.733s-10.896 0.145-10.896 6.345m10.752-11.426s-11.384 0.7104-11.384-6.6222c0-0.00003-4.352 0.9551-8.981 0.01277 0 7.2671-11.432 6.5999-11.432 6.5999m-0.14423 5.081s11.232 0.093 11.232 6.51"/>
     </g>
     <path id="path1199" opacity=".5" fill-rule="nonzero" fill="#93CF10" d="m43.61 27.015c-3.237 1.629-3.237 4.27 0 5.9 3.237 1.629 8.486 1.629 11.723-0.001 1.554-0.782 2.428-1.843 2.428-2.949 0-1.107-0.873-2.168-2.428-2.95-1.554-0.782-3.663-1.222-5.861-1.222-2.199 0-4.307 0.44-5.862 1.222"/>
     <g id="g1213" stroke="#93CF10" transform="translate(32.472 38.26)">
      <path id="path1201" fill-rule="nonzero" fill-opacity="0" fill="#fff" d="m5.3328 2.9829c-6.4437 3.706-6.4438 9.7141-0.0002 13.42 6.4434 3.706 16.89 3.706 23.334 0 3.095-1.779 4.833-4.193 4.833-6.71 0-2.5168-1.738-4.9305-4.833-6.7102-3.094-1.7796-7.291-2.7794-11.667-2.7794-4.376 0.00004-8.5728 0.9998-11.667 2.7795h-0.0002"/>
      <path id="path1203" fill-rule="nonzero" fill-opacity="0" fill="#fff" d="m0.50281 9.7287s0.004 2.5443 0.0149 3.0873c0.0481 2.387 1.6462 4.765 4.8143 6.587 6.444 3.706 16.892 3.706 23.336 0 3.094-1.78 4.832-4.193 4.832-6.709 0-0.507-0.003-2.9598-0.003-2.9598"/>
      <path id="path1205" opacity=".5" d="m0.51771 12.597c0.0481-2.387 1.6462-4.7646 4.8143-6.5867 6.444-3.7059 16.892-3.706 23.336 0 3.094 1.7796 4.832 4.1917 4.832 6.7087" fill-rule="nonzero" fill-opacity="0" fill="#fff"/>
      <path id="path1207" d="m15.263 8.8307c-0.959 0.4828-0.959 1.2653 0 1.7483s2.515 0.483 3.474 0c0.461-0.232 0.719-0.546 0.719-0.8742 0-0.3278-0.258-0.6423-0.719-0.8741-0.461-0.2319-1.085-0.3621-1.737-0.3621s-1.276 0.1302-1.737 0.3621"/>
      <path id="path1209" fill-rule="nonzero" fill-opacity="0" fill="#fff" d="m16.622 7.809l-5.027-4.0551c2.661-0.5409 4.935-0.4496 4.935-0.4496l0.092 4.5047z"/>
      <path id="path1211" fill-rule="nonzero" fill-opacity="0" fill="#fff" d="m17.678 11.662l6.22 4.938c-3.37 1.177-6.238 0.84-6.238 0.84l0.018-5.778z"/>
     </g>
     <g id="g1217" opacity=".5" stroke="#93CF10" transform="translate(33 33.838)">
      <path id="path1215" d="m32.425 0.33323s-9.647 0.22314-9.647 4.7438m-22.438-4.7533s9.9202 0.18541 9.9202 4.6972"/>
     </g>
     <path id="path1219" opacity=".5" stroke="#93CF10" d="m36.306 29.082v1.931"/>
     <path id="path1221" opacity=".5" stroke="#93CF10" d="m38.306 29.082v1.931"/>
     <path id="path1223" opacity=".5" stroke="#93CF10" d="m60.306 29.082v1.931"/>
     <path id="path1225" opacity=".5" stroke="#93CF10" d="m62.306 29.082v1.931"/>
    </g>
    <path id="path8782-3" opacity=".25" stroke-linejoin="bevel" stroke="#93CF10" d="m699.5 97.571v-1.706m0-2.021v-10.854"/>
   </g>
  </g>
 </g>
</svg>
