<?xml version="1.0" encoding="UTF-8" standalone="no"?>
<!-- Created with Inkscape (http://www.inkscape.org/) -->

<svg
   xmlns:dc="http://purl.org/dc/elements/1.1/"
   xmlns:cc="http://creativecommons.org/ns#"
   xmlns:rdf="http://www.w3.org/1999/02/22-rdf-syntax-ns#"
   xmlns:svg="http://www.w3.org/2000/svg"
   xmlns="http://www.w3.org/2000/svg"
   xmlns:sodipodi="http://sodipodi.sourceforge.net/DTD/sodipodi-0.dtd"
   xmlns:inkscape="http://www.inkscape.org/namespaces/inkscape"
   width="426.25363"
   height="433.32318"
   id="svg2"
   version="1.1"
   inkscape:version="0.48.4 r9939"
   sodipodi:docname="heart.svg">
  <defs
     id="defs4" />
  <sodipodi:namedview
     id="base"
     pagecolor="#ffffff"
     bordercolor="#666666"
     borderopacity="1.0"
     inkscape:pageopacity="0.0"
     inkscape:pageshadow="2"
     inkscape:zoom="1"
     inkscape:cx="-46.12008"
     inkscape:cy="201.39221"
     inkscape:document-units="px"
     inkscape:current-layer="layer1"
     showgrid="false"
     showguides="false"
     inkscape:guide-bbox="true"
     inkscape:window-width="1920"
     inkscape:window-height="1056"
     inkscape:window-x="0"
     inkscape:window-y="24"
     inkscape:window-maximized="1"
     fit-margin-top="0"
     fit-margin-left="0"
     fit-margin-right="0"
     fit-margin-bottom="0">
    <sodipodi:guide
       orientation="1,0"
       position="213.00443,701.04588"
       id="guide2985" />
  </sodipodi:namedview>
  <metadata
     id="metadata7">
    <rdf:RDF>
      <cc:Work
         rdf:about="">
        <dc:format>image/svg+xml</dc:format>
        <dc:type
           rdf:resource="http://purl.org/dc/dcmitype/StillImage" />
        <dc:title></dc:title>
      </cc:Work>
    </rdf:RDF>
  </metadata>
  <g
     inkscape:label="Calque 1"
     inkscape:groupmode="layer"
     id="layer1"
     transform="translate(-168.83323,-153.35867)">
    <path
       style="fill:#dd4814;fill-opacity:1;stroke:none"
       d="m 382.08766,208.88481 c 0,0 -96.97464,-126.269071 -190.91883,2.0203 -93.944186,128.28938 135.36044,329.30973 190.91883,375.77675"
       id="path2989"
       inkscape:connector-curvature="0" />
    <path
       inkscape:connector-curvature="0"
       id="path2991"
       d="m 381.83245,208.88441 c 0,0 96.97464,-126.269077 190.91883,2.0203 93.94419,128.28938 -135.36044,329.30973 -190.91883,375.77675"
       style="fill:#dd4814;fill-opacity:1;stroke:none" />
    <g
       id="g3898"
       transform="matrix(0.6754438,0,0,0.6754438,285.10058,243.94985)">
      <path
         id="path3890"
         d="m 283.465,141.734 c 0,78.273 -63.457,141.73 -141.734,141.73 C 63.454,283.464 0,220.008 0,141.734 0,63.455 63.453,0 141.73,0 220.007,0 283.465,63.455 283.465,141.734 z"
         inkscape:connector-curvature="0"
         style="fill:#ffffff" />
      <path
         id="path3892"
         d="m 45.356,122.812 c -10.453,0 -18.923,8.47 -18.923,18.923 0,10.449 8.47,18.92 18.923,18.92 10.449,0 18.92,-8.471 18.92,-18.92 0,-10.454 -8.47,-18.923 -18.92,-18.923 z m 135.107,86.002 c -9.051,5.225 -12.149,16.793 -6.926,25.84 5.226,9.051 16.793,12.151 25.844,6.926 9.048,-5.224 12.148,-16.792 6.923,-25.842 -5.224,-9.047 -16.793,-12.148 -25.841,-6.924 z M 86.458,141.732 c 0,-18.701 9.293,-35.219 23.504,-45.221 L 96.128,73.338 c -16.56,11.064 -28.878,27.978 -33.995,47.788 5.977,4.872 9.796,12.291 9.796,20.608 0,8.315 -3.819,15.734 -9.797,20.605 5.116,19.812 17.435,36.726 33.995,47.789 l 13.835,-23.175 c -14.211,-10 -23.504,-26.517 -23.504,-45.221 z m 55.275,-55.275 c 28.877,0 52.564,22.141 55.047,50.373 l 26.968,-0.394 c -1.327,-20.844 -10.432,-39.562 -24.425,-53.319 -7.194,2.718 -15.505,2.306 -22.688,-1.842 -7.192,-4.152 -11.705,-11.156 -12.941,-18.757 -6.992,-1.935 -14.351,-2.99 -21.96,-2.99 -13.086,0 -25.449,3.072 -36.431,8.512 l 13.146,23.56 c 7.077,-3.293 14.963,-5.143 23.284,-5.143 z m 0,110.551 c -8.322,0 -16.207,-1.85 -23.285,-5.143 L 105.3,215.427 c 10.983,5.438 23.347,8.511 36.433,8.511 7.609,0 14.968,-1.055 21.961,-2.99 1.236,-7.601 5.75,-14.605 12.943,-18.76 7.183,-4.146 15.494,-4.558 22.688,-1.839 13.992,-13.758 23.097,-32.476 24.422,-53.32 l -26.968,-0.394 c -2.481,28.236 -26.169,50.373 -55.046,50.373 z M 180.46,74.649 c 9.05,5.227 20.619,2.126 25.842,-6.921 5.226,-9.051 2.128,-20.619 -6.923,-25.845 -9.049,-5.224 -20.617,-2.124 -25.843,6.927 -5.224,9.047 -2.124,20.616 6.924,25.839 z"
         inkscape:connector-curvature="0"
         style="fill:#dd4814" />
    </g>
    <text
       xml:space="preserve"
       style="font-size:40px;font-style:normal;font-variant:normal;font-weight:normal;font-stretch:normal;line-height:200%;letter-spacing:0px;word-spacing:0px;fill:#000000;fill-opacity:1;stroke:none;font-family:Ubuntu;-inkscape-font-specification:Ubuntu"
       x="304.83322"
       y="498.68188"
       id="text3902"
       sodipodi:linespacing="200%"><tspan
         sodipodi:role="line"
         id="tspan3904"
         x="304.83322"
         y="498.68188"
         style="font-size:72px;line-height:200%;fill:#ffffff">devs</tspan></text>
  </g>
</svg>
